<svg width="397.7" height="311.7" viewBox="0 0 397.7 311.7" xmlns="http://www.w3.org/2000/svg">
  <defs>
    <linearGradient id="solanaGradient" x1="0%" y1="0%" x2="100%" y2="100%">
      <stop offset="0%" style="stop-color:#00FFA3;stop-opacity:1" />
      <stop offset="100%" style="stop-color:#DC1FFF;stop-opacity:1" />
    </linearGradient>
  </defs>
  <path d="m64.6 237.9c2.4-2.4 5.7-3.8 9.2-3.8h317.4c5.8 0 8.7 7 4.6 11.1l-62.7 62.7c-2.4 2.4-5.7 3.8-9.2 3.8h-317.4c-5.8 0-8.7-7-4.6-11.1z" fill="url(#solanaGradient)"/>
  <path d="m64.6 3.8c2.4-2.4 5.7-3.8 9.2-3.8h317.4c5.8 0 8.7 7 4.6 11.1l-62.7 62.7c-2.4 2.4-5.7 3.8-9.2 3.8h-317.4c-5.8 0-8.7-7-4.6-11.1z" fill="url(#solanaGradient)"/>
  <path d="m333.1 120.1c-2.4-2.4-5.7-3.8-9.2-3.8h-317.4c-5.8 0-8.7 7-4.6 11.1l62.7 62.7c2.4 2.4 5.7 3.8 9.2 3.8h317.4c5.8 0 8.7-7 4.6-11.1z" fill="url(#solanaGradient)"/>
</svg>